<?xml version="1.0" encoding="UTF-8"?>
<!DOCTYPE svg PUBLIC "-//W3C//DTD SVG 1.1//EN" "http://www.w3.org/Graphics/SVG/1.1/DTD/svg11.dtd">
<svg xmlns="http://www.w3.org/2000/svg" version="1.1" width="258px" height="257px" style="shape-rendering:geometricPrecision; text-rendering:geometricPrecision; image-rendering:optimizeQuality; fill-rule:evenodd; clip-rule:evenodd" xmlns:xlink="http://www.w3.org/1999/xlink">
<g><path style="opacity:0.573" fill="#aa6c45" d="M 145.5,17.5 C 132.815,17.3451 120.149,17.6784 107.5,18.5C 120.107,15.1706 132.774,14.8373 145.5,17.5 Z"/></g>
<g><path style="opacity:0.91" fill="#e69657" d="M 145.5,17.5 C 146.833,17.5 148.167,17.5 149.5,17.5C 151.78,19.2227 154.447,19.8893 157.5,19.5C 159.786,19.595 161.786,20.2616 163.5,21.5C 164.47,22.6293 165.636,23.6293 167,24.5C 169.728,24.7642 172.061,25.7642 174,27.5C 175.016,26.3659 175.683,26.6992 176,28.5C 176.671,27.7476 177.504,27.4142 178.5,27.5C 180.284,27.8925 181.95,28.5592 183.5,29.5C 184.733,31.7964 186.733,33.1298 189.5,33.5C 188.833,34.1667 188.167,34.8333 187.5,35.5C 186.127,35.6567 184.793,35.49 183.5,35C 171.414,26.9668 158.081,21.9668 143.5,20C 138.674,19.4268 133.841,18.9268 129,18.5C 116.817,19.8648 104.65,21.1981 92.5,22.5C 97.1935,20.3859 102.194,19.0526 107.5,18.5C 120.149,17.6784 132.815,17.3451 145.5,17.5 Z"/></g>
<g><path style="opacity:0.353" fill="#76422b" d="M 149.5,17.5 C 152.373,17.8023 155.039,18.469 157.5,19.5C 154.447,19.8893 151.78,19.2227 149.5,17.5 Z"/></g>
<g><path style="opacity:1" fill="#fd9742" d="M 187.5,35.5 C 190.221,35.9628 192.888,36.6295 195.5,37.5C 195.351,38.552 195.517,39.552 196,40.5C 198.306,41.7301 200.473,43.0634 202.5,44.5C 205.678,51.7221 211.011,57.7221 218.5,62.5C 219.06,64.8008 219.56,67.1341 220,69.5C 221.011,70.3366 222.178,70.67 223.5,70.5C 224.609,73.7328 225.442,77.0662 226,80.5C 226.383,79.944 226.883,79.6107 227.5,79.5C 227.111,86.3389 226.444,93.0056 225.5,99.5C 220.986,97.4149 216.32,95.5816 211.5,94C 207.136,90.8176 202.469,88.1509 197.5,86C 191.977,81.8398 186.643,77.5065 181.5,73C 174.795,70.766 168.462,67.766 162.5,64C 155.067,63.6307 147.734,62.6307 140.5,61C 120.167,60.3333 99.8333,60.3333 79.5,61C 70.5698,62.6965 61.5698,64.0299 52.5,65C 47.7041,66.3446 43.0374,67.8446 38.5,69.5C 39.9252,66.3116 41.5919,63.3116 43.5,60.5C 76.8875,51.9734 110.887,47.3067 145.5,46.5C 143.231,45.1847 140.898,44.0181 138.5,43C 120.267,40.563 101.933,39.8963 83.5,41C 76.5299,41.6136 69.6966,42.7803 63,44.5C 62.6012,44.2716 62.4346,43.9382 62.5,43.5C 67.4296,38.6925 73.0963,34.8592 79.5,32C 84.0155,28.9701 88.3488,25.8034 92.5,22.5C 104.65,21.1981 116.817,19.8648 129,18.5C 133.841,18.9268 138.674,19.4268 143.5,20C 158.081,21.9668 171.414,26.9668 183.5,35C 184.793,35.49 186.127,35.6567 187.5,35.5 Z"/></g>
<g><path style="opacity:0.925" fill="#a56740" d="M 163.5,21.5 C 169.025,22.3383 174.025,24.3383 178.5,27.5C 177.504,27.4142 176.671,27.7476 176,28.5C 175.683,26.6992 175.016,26.3659 174,27.5C 172.061,25.7642 169.728,24.7642 167,24.5C 165.636,23.6293 164.47,22.6293 163.5,21.5 Z"/></g>
<g><path style="opacity:0.482" fill="#633622" d="M 183.5,29.5 C 185.882,30.3507 187.882,31.684 189.5,33.5C 186.733,33.1298 184.733,31.7964 183.5,29.5 Z"/></g>
<g><path style="opacity:0.235" fill="#6b4227" d="M 69.5,33.5 C 69.0269,34.9063 68.0269,35.573 66.5,35.5C 66.9731,34.0937 67.9731,33.427 69.5,33.5 Z"/></g>
<g><path style="opacity:0.847" fill="#975737" d="M 189.5,33.5 C 191.853,34.3403 193.853,35.6736 195.5,37.5C 192.888,36.6295 190.221,35.9628 187.5,35.5C 188.167,34.8333 188.833,34.1667 189.5,33.5 Z"/></g>
<g><path style="opacity:0.31" fill="#73371d" d="M 66.5,35.5 C 66.0269,36.9063 65.0269,37.573 63.5,37.5C 63.9731,36.0937 64.9731,35.427 66.5,35.5 Z"/></g>
<g><path style="opacity:1" fill="#e39155" d="M 92.5,22.5 C 88.3488,25.8034 84.0155,28.9701 79.5,32C 73.0963,34.8592 67.4296,38.6925 62.5,43.5C 57.8712,44.9475 54.2045,47.7808 51.5,52C 50.552,52.4828 49.552,52.6495 48.5,52.5C 48.5,51.8333 48.5,51.1667 48.5,50.5C 49.1667,49.1667 50.1667,48.1667 51.5,47.5C 54.4323,46.2003 56.7656,44.2003 58.5,41.5C 60.7488,40.9202 62.4154,39.5869 63.5,37.5C 65.0269,37.573 66.0269,36.9063 66.5,35.5C 68.0269,35.573 69.0269,34.9063 69.5,33.5C 76.4581,28.5223 84.1248,24.8557 92.5,22.5 Z"/></g>
<g><path style="opacity:0.753" fill="#a86d48" d="M 195.5,37.5 C 198.45,39.1153 201.116,41.1153 203.5,43.5C 203.5,43.8333 203.5,44.1667 203.5,44.5C 203.167,44.5 202.833,44.5 202.5,44.5C 200.473,43.0634 198.306,41.7301 196,40.5C 195.517,39.552 195.351,38.552 195.5,37.5 Z"/></g>
<g><path style="opacity:0.459" fill="#6f391f" d="M 63.5,37.5 C 62.4154,39.5869 60.7488,40.9202 58.5,41.5C 59.5846,39.4131 61.2512,38.0798 63.5,37.5 Z"/></g>
<g><path style="opacity:0.275" fill="#532916" d="M 203.5,43.5 C 205.5,44.8333 207.167,46.5 208.5,48.5C 206.251,47.9202 204.585,46.5869 203.5,44.5C 203.5,44.1667 203.5,43.8333 203.5,43.5 Z"/></g>
<g><path style="opacity:0.082" fill="#4d150d" d="M 58.5,41.5 C 56.7656,44.2003 54.4323,46.2003 51.5,47.5C 51.4142,46.5041 51.7476,45.6708 52.5,45C 54.4048,43.5787 56.4048,42.412 58.5,41.5 Z"/></g>
<g><path style="opacity:1" fill="#f47526" d="M 43.5,60.5 C 44.8611,58.1495 46.1944,55.8162 47.5,53.5C 47.5,52.8333 47.8333,52.5 48.5,52.5C 49.552,52.6495 50.552,52.4828 51.5,52C 54.2045,47.7808 57.8712,44.9475 62.5,43.5C 62.4346,43.9382 62.6012,44.2716 63,44.5C 69.6966,42.7803 76.5299,41.6136 83.5,41C 101.933,39.8963 120.267,40.563 138.5,43C 140.898,44.0181 143.231,45.1847 145.5,46.5C 110.887,47.3067 76.8875,51.9734 43.5,60.5 Z"/></g>
<g><path style="opacity:0.29" fill="#532717" d="M 208.5,48.5 C 211.243,50.2393 213.243,52.5726 214.5,55.5C 211.757,53.7607 209.757,51.4274 208.5,48.5 Z"/></g>
<g><path style="opacity:1" fill="#ea9c5d" d="M 202.5,44.5 C 202.833,44.5 203.167,44.5 203.5,44.5C 204.585,46.5869 206.251,47.9202 208.5,48.5C 209.757,51.4274 211.757,53.7607 214.5,55.5C 215.08,57.7488 216.413,59.4154 218.5,60.5C 218.5,61.1667 218.5,61.8333 218.5,62.5C 211.011,57.7221 205.678,51.7221 202.5,44.5 Z"/></g>
<g><path style="opacity:0.302" fill="#602010" d="M 48.5,50.5 C 48.5,51.1667 48.5,51.8333 48.5,52.5C 47.8333,52.5 47.5,52.8333 47.5,53.5C 44.8333,56.1667 42.1667,58.8333 39.5,61.5C 41.3717,56.9568 44.3717,53.2901 48.5,50.5 Z"/></g>
<g><path style="opacity:0.467" fill="#6a351d" d="M 214.5,55.5 C 216.587,56.5846 217.92,58.2512 218.5,60.5C 216.413,59.4154 215.08,57.7488 214.5,55.5 Z"/></g>
<g><path style="opacity:0.208" fill="#612c19" d="M 218.5,60.5 C 219.906,60.9731 220.573,61.9731 220.5,63.5C 219.833,63.1667 219.167,62.8333 218.5,62.5C 218.5,61.8333 218.5,61.1667 218.5,60.5 Z"/></g>
<g><path style="opacity:0.176" fill="#612b16" d="M 39.5,61.5 C 39.573,63.0269 38.9063,64.0269 37.5,64.5C 37.427,62.9731 38.0937,61.9731 39.5,61.5 Z"/></g>
<g><path style="opacity:0.22" fill="#6d351f" d="M 220.5,63.5 C 221.906,63.9731 222.573,64.9731 222.5,66.5C 221.094,66.0269 220.427,65.0269 220.5,63.5 Z"/></g>
<g><path style="opacity:0.208" fill="#6f351f" d="M 37.5,64.5 C 37.573,66.0269 36.9063,67.0269 35.5,67.5C 35.427,65.9731 36.0937,64.9731 37.5,64.5 Z"/></g>
<g><path style="opacity:1" fill="#e48e54" d="M 47.5,53.5 C 46.1944,55.8162 44.8611,58.1495 43.5,60.5C 41.5919,63.3116 39.9252,66.3116 38.5,69.5C 36.208,70.7899 34.208,72.4565 32.5,74.5C 32.5,73.8333 32.5,73.1667 32.5,72.5C 32.3284,71.5084 32.6618,70.8417 33.5,70.5C 34.9063,70.0269 35.573,69.0269 35.5,67.5C 36.9063,67.0269 37.573,66.0269 37.5,64.5C 38.9063,64.0269 39.573,63.0269 39.5,61.5C 42.1667,58.8333 44.8333,56.1667 47.5,53.5 Z"/></g>
<g><path style="opacity:1" fill="#eb9c5f" d="M 218.5,62.5 C 219.167,62.8333 219.833,63.1667 220.5,63.5C 220.427,65.0269 221.094,66.0269 222.5,66.5C 222.427,68.0269 223.094,69.0269 224.5,69.5C 224.427,71.0269 225.094,72.0269 226.5,72.5C 226.674,74.861 227.007,77.1944 227.5,79.5C 226.883,79.6107 226.383,79.944 226,80.5C 225.442,77.0662 224.609,73.7328 223.5,70.5C 222.178,70.67 221.011,70.3366 220,69.5C 219.56,67.1341 219.06,64.8008 218.5,62.5 Z"/></g>
<g><path style="opacity:0.176" fill="#6d3923" d="M 222.5,66.5 C 223.906,66.9731 224.573,67.9731 224.5,69.5C 223.094,69.0269 222.427,68.0269 222.5,66.5 Z"/></g>
<g><path style="opacity:0.18" fill="#5c2e19" d="M 35.5,67.5 C 35.573,69.0269 34.9063,70.0269 33.5,70.5C 33.427,68.9731 34.0937,67.9731 35.5,67.5 Z"/></g>
<g><path style="opacity:0.259" fill="#572e1b" d="M 224.5,69.5 C 225.906,69.9731 226.573,70.9731 226.5,72.5C 225.094,72.0269 224.427,71.0269 224.5,69.5 Z"/></g>
<g><path style="opacity:1" fill="#f47526" d="M 225.5,99.5 C 225.5,99.8333 225.5,100.167 225.5,100.5C 225.167,102.5 224.833,104.5 224.5,106.5C 214.706,104.85 205.706,101.35 197.5,96C 194.211,95.1184 190.877,94.4517 187.5,94C 186.132,91.1956 185.132,88.3623 184.5,85.5C 183.903,84.8614 183.07,84.528 182,84.5C 180.624,84.6842 179.791,85.3509 179.5,86.5C 178.833,86.5 178.167,86.5 177.5,86.5C 178.161,83.3373 179.828,80.8373 182.5,79C 182.333,78.5 182.167,78 182,77.5C 174.463,71.5563 166.129,68.223 157,67.5C 155.513,66.7471 155.346,65.9138 156.5,65C 119.901,59.809 83.5674,61.1423 47.5,69C 46.1059,69.956 45.4393,71.2894 45.5,73C 46.979,76.007 47.6457,79.1737 47.5,82.5C 56.991,80.1779 66.6577,78.6779 76.5,78C 75.8333,77.6667 75.1667,77.3333 74.5,77C 77.5,76.6667 80.5,76.3333 83.5,76C 81.5,75.6667 79.5,75.3333 77.5,75C 78.6086,74.3623 79.7753,73.8623 81,73.5C 99.0324,75.0163 117.199,75.8497 135.5,76C 141.425,75.9763 146.758,77.4763 151.5,80.5C 145.217,79.1806 138.883,78.0139 132.5,77C 104.75,75.2196 77.4165,77.7196 50.5,84.5C 46.4184,85.5948 42.7517,87.4281 39.5,90C 35.5227,90.7846 31.6893,91.9513 28,93.5C 27.1301,92.8921 26.6301,92.0588 26.5,91C 28.8823,86.7409 30.5489,82.2409 31.5,77.5C 31.2627,76.209 31.596,75.209 32.5,74.5C 34.208,72.4565 36.208,70.7899 38.5,69.5C 43.0374,67.8446 47.7041,66.3446 52.5,65C 61.5698,64.0299 70.5698,62.6965 79.5,61C 99.8333,60.3333 120.167,60.3333 140.5,61C 147.734,62.6307 155.067,63.6307 162.5,64C 168.462,67.766 174.795,70.766 181.5,73C 186.643,77.5065 191.977,81.8398 197.5,86C 202.469,88.1509 207.136,90.8176 211.5,94C 216.32,95.5816 220.986,97.4149 225.5,99.5 Z"/></g>
<g><path style="opacity:1" fill="#f77324" d="M 177.5,86.5 C 176.833,86.5 176.5,86.8333 176.5,87.5C 173.247,87.5292 170.581,86.3625 168.5,84C 162.651,83.0709 156.985,81.9043 151.5,80.5C 146.758,77.4763 141.425,75.9763 135.5,76C 117.199,75.8497 99.0324,75.0163 81,73.5C 79.7753,73.8623 78.6086,74.3623 77.5,75C 79.5,75.3333 81.5,75.6667 83.5,76C 80.5,76.3333 77.5,76.6667 74.5,77C 75.1667,77.3333 75.8333,77.6667 76.5,78C 66.6577,78.6779 56.991,80.1779 47.5,82.5C 47.6457,79.1737 46.979,76.007 45.5,73C 45.4393,71.2894 46.1059,69.956 47.5,69C 83.5674,61.1423 119.901,59.809 156.5,65C 155.346,65.9138 155.513,66.7471 157,67.5C 166.129,68.223 174.463,71.5563 182,77.5C 182.167,78 182.333,78.5 182.5,79C 179.828,80.8373 178.161,83.3373 177.5,86.5 Z"/></g>
<g><path style="opacity:0.702" fill="#723420" d="M 32.5,72.5 C 32.5,73.1667 32.5,73.8333 32.5,74.5C 31.596,75.209 31.2627,76.209 31.5,77.5C 30.8333,77.5 30.1667,77.5 29.5,77.5C 29.7497,75.326 30.7497,73.6594 32.5,72.5 Z"/></g>
<g><path style="opacity:0.729" fill="#884a2d" d="M 226.5,72.5 C 229.622,77.0806 231.956,82.0806 233.5,87.5C 231.926,86.0158 230.593,84.3492 229.5,82.5C 229.715,80.8212 229.048,79.8212 227.5,79.5C 227.007,77.1944 226.674,74.861 226.5,72.5 Z"/></g>
<g><path style="opacity:1" fill="#f38a36" d="M 151.5,80.5 C 156.985,81.9043 162.651,83.0709 168.5,84C 170.581,86.3625 173.247,87.5292 176.5,87.5C 174.32,89.8633 172.653,92.53 171.5,95.5C 164.881,96.2571 158.215,96.7571 151.5,97C 147.794,98.9989 145.461,101.666 144.5,105C 146.332,105.748 147.999,106.748 149.5,108C 154.324,108.114 158.99,108.947 163.5,110.5C 162.195,113.433 161.195,116.433 160.5,119.5C 158.143,119.337 155.81,119.503 153.5,120C 152.663,121.011 152.33,122.178 152.5,123.5C 152.557,124.609 152.89,125.609 153.5,126.5C 153.5,126.833 153.5,127.167 153.5,127.5C 152.504,127.586 151.671,127.252 151,126.5C 150.506,124.866 150.34,123.199 150.5,121.5C 144.921,118.079 138.921,115.246 132.5,113C 125.206,112.013 118.206,110.013 111.5,107C 101.781,106.141 92.1145,106.474 82.5,108C 78.7628,110.247 74.7628,111.914 70.5,113C 57.8731,121.96 46.8731,132.626 37.5,145C 34.5268,146.31 32.1935,148.31 30.5,151C 25.237,151.44 23.237,154.273 24.5,159.5C 19.9762,144.261 18.6428,128.595 20.5,112.5C 23.0838,105.489 24.7505,98.1553 25.5,90.5C 25.5,89.1667 25.5,87.8333 25.5,86.5C 28.1648,84.1645 29.4982,81.1645 29.5,77.5C 30.1667,77.5 30.8333,77.5 31.5,77.5C 30.5489,82.2409 28.8823,86.7409 26.5,91C 26.6301,92.0588 27.1301,92.8921 28,93.5C 31.6893,91.9513 35.5227,90.7846 39.5,90C 42.7517,87.4281 46.4184,85.5948 50.5,84.5C 77.4165,77.7196 104.75,75.2196 132.5,77C 138.883,78.0139 145.217,79.1806 151.5,80.5 Z"/></g>
<g><path style="opacity:0.729" fill="#79351e" d="M 29.5,77.5 C 29.4982,81.1645 28.1648,84.1645 25.5,86.5C 26.0749,83.0884 27.4082,80.0884 29.5,77.5 Z"/></g>
<g><path style="opacity:0.176" fill="#823011" d="M 184.5,85.5 C 184.784,87.4147 184.451,89.0813 183.5,90.5C 184.128,86.5089 182.795,85.1755 179.5,86.5C 179.791,85.3509 180.624,84.6842 182,84.5C 183.07,84.528 183.903,84.8614 184.5,85.5 Z"/></g>
<g><path style="opacity:1" fill="#cf7947" d="M 229.5,82.5 C 230.593,84.3492 231.926,86.0158 233.5,87.5C 233.415,90.6489 234.415,93.3155 236.5,95.5C 236.5,95.8333 236.5,96.1667 236.5,96.5C 236.5,98.8333 236.5,101.167 236.5,103.5C 235.111,97.9129 232.944,92.5796 230,87.5C 229.506,85.8659 229.34,84.1992 229.5,82.5 Z"/></g>
<g><path style="opacity:0.498" fill="#682a16" d="M 25.5,86.5 C 25.5,87.8333 25.5,89.1667 25.5,90.5C 24.6873,92.2608 23.6873,93.9275 22.5,95.5C 22.9281,92.2154 23.9281,89.2154 25.5,86.5 Z"/></g>
<g><path style="opacity:0.753" fill="#b06c45" d="M 177.5,86.5 C 178.167,86.5 178.833,86.5 179.5,86.5C 176.719,90.5536 174.053,94.7203 171.5,99C 168.854,99.4974 166.187,99.6641 163.5,99.5C 165.292,98.6909 167.292,98.1909 169.5,98C 170.381,97.2917 171.047,96.4584 171.5,95.5C 172.653,92.53 174.32,89.8633 176.5,87.5C 176.5,86.8333 176.833,86.5 177.5,86.5 Z"/></g>
<g><path style="opacity:0.353" fill="#5d2515" d="M 233.5,87.5 C 235.267,89.7916 236.267,92.4582 236.5,95.5C 234.415,93.3155 233.415,90.6489 233.5,87.5 Z"/></g>
<g><path style="opacity:1" fill="#f28a37" d="M 184.5,85.5 C 185.132,88.3623 186.132,91.1956 187.5,94C 190.877,94.4517 194.211,95.1184 197.5,96C 205.706,101.35 214.706,104.85 224.5,106.5C 223.833,111.5 223.167,116.5 222.5,121.5C 211.056,130.364 198.056,133.864 183.5,132C 179.573,130.842 175.573,130.009 171.5,129.5C 171.167,128.5 170.5,127.833 169.5,127.5C 168.504,127.586 167.671,127.252 167,126.5C 166.444,124.115 166.61,121.782 167.5,119.5C 169.217,117.389 171.384,115.722 174,114.5C 175.077,115.429 176.244,116.096 177.5,116.5C 177.833,116.5 178.167,116.5 178.5,116.5C 179.382,122.278 182.716,124.611 188.5,123.5C 188.664,120.813 188.497,118.146 188,115.5C 186,112.167 184,108.833 182,105.5C 181.503,102.854 181.336,100.187 181.5,97.5C 182.015,95.1055 182.681,92.7722 183.5,90.5C 184.451,89.0813 184.784,87.4147 184.5,85.5 Z"/></g>
<g><path style="opacity:0.663" fill="#b5693b" d="M 163.5,99.5 C 159.637,100.327 155.637,101.161 151.5,102C 151.167,102.333 150.833,102.667 150.5,103C 151.416,103.278 152.082,103.778 152.5,104.5C 150.833,104.5 149.167,104.5 147.5,104.5C 147.48,102.857 148.147,101.524 149.5,100.5C 154.12,99.5067 158.786,99.1734 163.5,99.5 Z"/></g>
<g><path style="opacity:0.925" fill="#cb824f" d="M 25.5,90.5 C 24.7505,98.1553 23.0838,105.489 20.5,112.5C 20.5,109.5 20.5,106.5 20.5,103.5C 20.5651,100.572 21.2318,97.9052 22.5,95.5C 23.6873,93.9275 24.6873,92.2608 25.5,90.5 Z"/></g>
<g><path style="opacity:0.31" fill="#733017" d="M 153.5,104.5 C 155.506,104.517 157.506,104.85 159.5,105.5C 157.516,105.383 155.85,106.05 154.5,107.5C 153.614,106.675 153.281,105.675 153.5,104.5 Z"/></g>
<g><path style="opacity:0.278" fill="#77432a" d="M 160.5,105.5 C 163.722,105.108 166.722,105.608 169.5,107C 168.915,108.302 168.249,109.469 167.5,110.5C 167.5,109.167 167.5,107.833 167.5,106.5C 165.409,106.318 163.409,106.652 161.5,107.5C 160.702,107.043 160.369,106.376 160.5,105.5 Z"/></g>
<g><path style="opacity:0.78" fill="#b67145" d="M 181.5,97.5 C 181.336,100.187 181.503,102.854 182,105.5C 184,108.833 186,112.167 188,115.5C 188.497,118.146 188.664,120.813 188.5,123.5C 182.716,124.611 179.382,122.278 178.5,116.5C 178.5,115.833 178.833,115.5 179.5,115.5C 181.262,116.262 182.262,117.596 182.5,119.5C 181.957,119.56 181.624,119.893 181.5,120.5C 182.257,121.773 182.923,121.773 183.5,120.5C 185.017,120.511 186.184,121.177 187,122.5C 187.167,122 187.333,121.5 187.5,121C 184.535,114.686 181.535,108.353 178.5,102C 179.348,100.334 180.348,98.8336 181.5,97.5 Z"/></g>
<g><path style="opacity:1" fill="#f77324" d="M 153.5,127.5 C 153.784,129.415 153.451,131.081 152.5,132.5C 151.5,132.5 150.5,132.5 149.5,132.5C 149.597,136.692 147.764,138.025 144,136.5C 141.31,138.182 138.477,139.682 135.5,141C 131.876,145.08 128.876,149.58 126.5,154.5C 123.385,156.35 120.052,156.85 116.5,156C 114.833,153 112.5,150.667 109.5,149C 99.9215,146.642 90.2548,146.142 80.5,147.5C 72.4814,152.007 64.1481,155.84 55.5,159C 52.8333,159.333 50.1667,159.667 47.5,160C 44.9382,162.413 41.9382,164.08 38.5,165C 36.5867,166.791 34.92,168.791 33.5,171C 32.0715,171.579 30.7382,171.412 29.5,170.5C 26.4927,167.402 24.8261,163.736 24.5,159.5C 23.237,154.273 25.237,151.44 30.5,151C 32.1935,148.31 34.5268,146.31 37.5,145C 46.8731,132.626 57.8731,121.96 70.5,113C 74.7628,111.914 78.7628,110.247 82.5,108C 92.1145,106.474 101.781,106.141 111.5,107C 118.206,110.013 125.206,112.013 132.5,113C 138.921,115.246 144.921,118.079 150.5,121.5C 150.34,123.199 150.506,124.866 151,126.5C 151.671,127.252 152.504,127.586 153.5,127.5 Z"/></g>
<g><path style="opacity:1" fill="#e68d49" d="M 171.5,95.5 C 171.047,96.4584 170.381,97.2917 169.5,98C 167.292,98.1909 165.292,98.6909 163.5,99.5C 158.786,99.1734 154.12,99.5067 149.5,100.5C 148.147,101.524 147.48,102.857 147.5,104.5C 149.167,104.5 150.833,104.5 152.5,104.5C 152.833,104.5 153.167,104.5 153.5,104.5C 153.281,105.675 153.614,106.675 154.5,107.5C 155.85,106.05 157.516,105.383 159.5,105.5C 159.833,105.5 160.167,105.5 160.5,105.5C 160.369,106.376 160.702,107.043 161.5,107.5C 163.409,106.652 165.409,106.318 167.5,106.5C 167.5,107.833 167.5,109.167 167.5,110.5C 167.5,110.833 167.5,111.167 167.5,111.5C 166.624,111.369 165.957,111.702 165.5,112.5C 163.55,115.515 161.884,118.681 160.5,122C 158.292,122.191 156.292,122.691 154.5,123.5C 153.833,123.5 153.167,123.5 152.5,123.5C 152.33,122.178 152.663,121.011 153.5,120C 155.81,119.503 158.143,119.337 160.5,119.5C 161.195,116.433 162.195,113.433 163.5,110.5C 158.99,108.947 154.324,108.114 149.5,108C 147.999,106.748 146.332,105.748 144.5,105C 145.461,101.666 147.794,98.9989 151.5,97C 158.215,96.7571 164.881,96.2571 171.5,95.5 Z"/></g>
<g><path style="opacity:0.925" fill="#c77f4e" d="M 177.5,112.5 C 177.5,113.833 177.5,115.167 177.5,116.5C 176.244,116.096 175.077,115.429 174,114.5C 171.384,115.722 169.217,117.389 167.5,119.5C 168.709,116.279 170.376,113.279 172.5,110.5C 174.854,109.177 176.521,109.843 177.5,112.5 Z"/></g>
<g><path style="opacity:0.035" fill="#571703" d="M 177.5,112.5 C 178.401,113.29 179.068,114.29 179.5,115.5C 178.833,115.5 178.5,115.833 178.5,116.5C 178.167,116.5 177.833,116.5 177.5,116.5C 177.5,115.167 177.5,113.833 177.5,112.5 Z"/></g>
<g><path style="opacity:0.773" fill="#b8764e" d="M 167.5,111.5 C 166.538,114.739 165.205,117.739 163.5,120.5C 163.067,123.259 161.4,124.592 158.5,124.5C 157.432,123.566 156.099,123.232 154.5,123.5C 156.292,122.691 158.292,122.191 160.5,122C 161.884,118.681 163.55,115.515 165.5,112.5C 165.957,111.702 166.624,111.369 167.5,111.5 Z"/></g>
<g><path style="opacity:0.396" fill="#501806" d="M 182.5,119.5 C 183.167,119.5 183.5,119.833 183.5,120.5C 182.923,121.773 182.257,121.773 181.5,120.5C 181.624,119.893 181.957,119.56 182.5,119.5 Z"/></g>
<g><path style="opacity:1" fill="#e26416" d="M 225.5,100.5 C 228.212,100.737 230.712,100.737 233,100.5C 235.64,106.815 236.14,113.315 234.5,120C 235.578,122.567 236.245,125.233 236.5,128C 236.105,140.035 234.772,151.869 232.5,163.5C 231.463,164.93 230.796,166.597 230.5,168.5C 229.185,169.476 227.852,170.476 226.5,171.5C 224.556,170.811 222.556,170.311 220.5,170C 215.712,166.934 211.379,163.434 207.5,159.5C 211.143,153.548 214.309,147.215 217,140.5C 218.275,133.923 220.109,127.59 222.5,121.5C 223.167,116.5 223.833,111.5 224.5,106.5C 224.833,104.5 225.167,102.5 225.5,100.5 Z"/></g>
<g><path style="opacity:0.012" fill="#551204" d="M 152.5,123.5 C 153.167,123.5 153.833,123.5 154.5,123.5C 155.833,124.5 155.833,125.5 154.5,126.5C 154.167,126.5 153.833,126.5 153.5,126.5C 152.89,125.609 152.557,124.609 152.5,123.5 Z"/></g>
<g><path style="opacity:1" fill="#db6b26" d="M 227.5,79.5 C 229.048,79.8212 229.715,80.8212 229.5,82.5C 229.34,84.1992 229.506,85.8659 230,87.5C 232.944,92.5796 235.111,97.9129 236.5,103.5C 239.274,116.639 240.274,129.972 239.5,143.5C 236.812,149.659 235.146,156.325 234.5,163.5C 233.833,163.5 233.167,163.5 232.5,163.5C 234.772,151.869 236.105,140.035 236.5,128C 236.245,125.233 235.578,122.567 234.5,120C 236.14,113.315 235.64,106.815 233,100.5C 230.712,100.737 228.212,100.737 225.5,100.5C 225.5,100.167 225.5,99.8333 225.5,99.5C 226.444,93.0056 227.111,86.3389 227.5,79.5 Z"/></g>
<g><path style="opacity:0.792" fill="#c47e56" d="M 167.5,119.5 C 166.61,121.782 166.444,124.115 167,126.5C 167.671,127.252 168.504,127.586 169.5,127.5C 169.672,128.492 169.338,129.158 168.5,129.5C 168.158,128.662 167.492,128.328 166.5,128.5C 165.77,127.288 164.77,126.288 163.5,125.5C 164.127,124.583 164.461,123.583 164.5,122.5C 165.272,121.306 166.272,120.306 167.5,119.5 Z"/></g>
<g><path style="opacity:0.09" fill="#3d0f05" d="M 163.5,120.5 C 163.328,121.492 163.662,122.158 164.5,122.5C 164.461,123.583 164.127,124.583 163.5,125.5C 164.77,126.288 165.77,127.288 166.5,128.5C 167.492,128.328 168.158,128.662 168.5,129.5C 168.657,130.873 168.49,132.207 168,133.5C 165.599,132.033 163.099,131.199 160.5,131C 159.534,133.769 158.201,136.269 156.5,138.5C 156.573,136.973 155.906,135.973 154.5,135.5C 155.415,133.246 156.748,131.246 158.5,129.5C 158.137,128.817 157.804,128.15 157.5,127.5C 159.796,127.196 160.129,126.196 158.5,124.5C 161.4,124.592 163.067,123.259 163.5,120.5 Z M 166.5,128.5 C 167.562,129.575 167.562,130.575 166.5,131.5C 165.224,130.386 165.224,129.386 166.5,128.5 Z"/></g>
<g><path style="opacity:0.262" fill="#8a452a" d="M 236.5,96.5 C 238.219,101.242 239.386,106.242 240,111.5C 240.825,122.341 240.659,133.008 239.5,143.5C 240.274,129.972 239.274,116.639 236.5,103.5C 236.5,101.167 236.5,98.8333 236.5,96.5 Z"/></g>
<g><path style="opacity:1" fill="#f77324" d="M 222.5,121.5 C 220.109,127.59 218.275,133.923 217,140.5C 214.309,147.215 211.143,153.548 207.5,159.5C 207.167,159.5 206.833,159.5 206.5,159.5C 196.615,156.268 187.282,157.435 178.5,163C 170.675,164.953 164.842,162.453 161,155.5C 160.152,152.44 159.152,149.44 158,146.5C 157.288,143.562 157.788,140.896 159.5,138.5C 160.234,137.292 160.567,135.959 160.5,134.5C 163.493,135.135 166.493,135.301 169.5,135C 171.155,133.556 171.822,131.722 171.5,129.5C 175.573,130.009 179.573,130.842 183.5,132C 198.056,133.864 211.056,130.364 222.5,121.5 Z"/></g>
<g><path style="opacity:1" fill="#cc7b45" d="M 153.5,126.5 C 153.833,126.5 154.167,126.5 154.5,126.5C 155.609,126.557 156.609,126.89 157.5,127.5C 157.804,128.15 158.137,128.817 158.5,129.5C 156.748,131.246 155.415,133.246 154.5,135.5C 148.542,141.451 142.208,147.118 135.5,152.5C 135.5,151.5 135.5,150.5 135.5,149.5C 136.675,149.719 137.675,149.386 138.5,148.5C 138.678,145.196 140.344,143.529 143.5,143.5C 143.5,142.5 143.5,141.5 143.5,140.5C 144.809,138.896 147.143,138.23 150.5,138.5C 150.259,136.114 150.925,134.114 152.5,132.5C 153.451,131.081 153.784,129.415 153.5,127.5C 153.5,127.167 153.5,126.833 153.5,126.5 Z"/></g>
<g><path style="opacity:0.682" fill="#ac6c43" d="M 20.5,103.5 C 20.5,106.5 20.5,109.5 20.5,112.5C 18.6428,128.595 19.9762,144.261 24.5,159.5C 24.8261,163.736 26.4927,167.402 29.5,170.5C 31.2479,175.653 33.2479,180.653 35.5,185.5C 38.8067,184.949 42.1401,184.616 45.5,184.5C 43.051,185.791 40.3844,186.791 37.5,187.5C 36.3279,187.081 35.3279,186.415 34.5,185.5C 19.2299,159.877 14.5632,132.544 20.5,103.5 Z"/></g>
<g><path style="opacity:1" fill="#f48a37" d="M 152.5,132.5 C 150.925,134.114 150.259,136.114 150.5,138.5C 147.143,138.23 144.809,138.896 143.5,140.5C 143.5,141.5 143.5,142.5 143.5,143.5C 140.344,143.529 138.678,145.196 138.5,148.5C 137.675,149.386 136.675,149.719 135.5,149.5C 135.5,150.5 135.5,151.5 135.5,152.5C 134.127,152.343 132.793,152.51 131.5,153C 128.429,155.584 124.929,157.418 121,158.5C 119.69,159.13 118.856,160.13 118.5,161.5C 114.73,164.53 110.396,166.197 105.5,166.5C 95.6199,166.653 85.9532,168.153 76.5,171C 74.2013,173.817 71.5347,175.983 68.5,177.5C 67.158,178.793 65.4913,179.626 63.5,180C 58.1107,180.507 52.7773,181.34 47.5,182.5C 46.7573,183.182 46.0906,183.849 45.5,184.5C 42.1401,184.616 38.8067,184.949 35.5,185.5C 33.2479,180.653 31.2479,175.653 29.5,170.5C 30.7382,171.412 32.0715,171.579 33.5,171C 34.92,168.791 36.5867,166.791 38.5,165C 41.9382,164.08 44.9382,162.413 47.5,160C 50.1667,159.667 52.8333,159.333 55.5,159C 64.1481,155.84 72.4814,152.007 80.5,147.5C 90.2548,146.142 99.9215,146.642 109.5,149C 112.5,150.667 114.833,153 116.5,156C 120.052,156.85 123.385,156.35 126.5,154.5C 128.876,149.58 131.876,145.08 135.5,141C 138.477,139.682 141.31,138.182 144,136.5C 147.764,138.025 149.597,136.692 149.5,132.5C 150.5,132.5 151.5,132.5 152.5,132.5 Z"/></g>
<g><path style="opacity:0.247" fill="#562d18" d="M 149.5,149.5 C 149.573,151.027 148.906,152.027 147.5,152.5C 147.427,150.973 148.094,149.973 149.5,149.5 Z"/></g>
<g><path style="opacity:0.733" fill="#8c4426" d="M 239.5,143.5 C 239.064,150.578 237.397,157.244 234.5,163.5C 235.146,156.325 236.812,149.659 239.5,143.5 Z"/></g>
<g><path style="opacity:1" fill="#ce8145" d="M 135.5,152.5 C 132.725,155.605 129.392,157.938 125.5,159.5C 123.071,159.884 120.737,160.551 118.5,161.5C 118.856,160.13 119.69,159.13 121,158.5C 124.929,157.418 128.429,155.584 131.5,153C 132.793,152.51 134.127,152.343 135.5,152.5 Z"/></g>
<g><path style="opacity:0.333" fill="#733a1f" d="M 144.5,156.5 C 143.243,159.427 141.243,161.761 138.5,163.5C 139.757,160.573 141.757,158.239 144.5,156.5 Z"/></g>
<g><path style="opacity:0.941" fill="#d77e46" d="M 169.5,127.5 C 170.5,127.833 171.167,128.5 171.5,129.5C 171.822,131.722 171.155,133.556 169.5,135C 166.493,135.301 163.493,135.135 160.5,134.5C 160.567,135.959 160.234,137.292 159.5,138.5C 158.542,138.953 157.708,139.619 157,140.5C 156.667,142.833 156.333,145.167 156,147.5C 150.98,154.682 145.147,161.016 138.5,166.5C 135.167,169.167 132.167,172.167 129.5,175.5C 124.451,180.538 118.784,184.871 112.5,188.5C 114.167,186.5 115.833,184.5 117.5,182.5C 117.833,181.833 118.167,181.167 118.5,180.5C 120.404,180.262 121.738,179.262 122.5,177.5C 123.262,175.738 124.596,174.738 126.5,174.5C 130.771,171.899 134.437,168.566 137.5,164.5C 137.5,163.833 137.833,163.5 138.5,163.5C 141.243,161.761 143.243,159.427 144.5,156.5C 144.738,154.596 145.738,153.262 147.5,152.5C 148.906,152.027 149.573,151.027 149.5,149.5C 151.597,145.628 153.931,141.961 156.5,138.5C 158.201,136.269 159.534,133.769 160.5,131C 163.099,131.199 165.599,132.033 168,133.5C 168.49,132.207 168.657,130.873 168.5,129.5C 169.338,129.158 169.672,128.492 169.5,127.5 Z"/></g>
<g><path style="opacity:1" fill="#de6f22" d="M 206.5,159.5 C 206.833,159.5 207.167,159.5 207.5,159.5C 211.379,163.434 215.712,166.934 220.5,170C 222.556,170.311 224.556,170.811 226.5,171.5C 227.852,170.476 229.185,169.476 230.5,168.5C 228.733,171.897 227.733,175.564 227.5,179.5C 225.983,179.511 224.816,180.177 224,181.5C 221.816,184.52 220.316,187.853 219.5,191.5C 218.5,191.5 217.5,191.5 216.5,191.5C 216.5,192.833 216.5,194.167 216.5,195.5C 216.262,197.404 215.262,198.738 213.5,199.5C 212.5,199.5 211.5,199.5 210.5,199.5C 210.5,200.5 210.5,201.5 210.5,202.5C 209.022,202.238 207.689,202.571 206.5,203.5C 205.479,204.901 204.479,206.235 203.5,207.5C 203.261,205.533 203.594,203.699 204.5,202C 203.451,201.508 202.451,201.674 201.5,202.5C 200.808,201.975 200.308,201.308 200,200.5C 198.56,202.046 196.727,202.879 194.5,203C 185.546,204.589 176.546,205.755 167.5,206.5C 171.135,202.877 175.135,199.544 179.5,196.5C 184.62,190.559 189.953,184.892 195.5,179.5C 200.052,173.291 203.719,166.625 206.5,159.5 Z"/></g>
<g><path style="opacity:0.639" fill="#b46238" d="M 125.5,159.5 C 114.904,166.991 103.237,172.491 90.5,176C 75.6009,179.413 60.6009,182.247 45.5,184.5C 46.0906,183.849 46.7573,183.182 47.5,182.5C 52.7773,181.34 58.1107,180.507 63.5,180C 65.4913,179.626 67.158,178.793 68.5,177.5C 74.2449,177.789 79.9116,177.289 85.5,176C 90.8037,173.082 96.4704,170.915 102.5,169.5C 104.175,169.132 105.175,168.132 105.5,166.5C 110.396,166.197 114.73,164.53 118.5,161.5C 120.737,160.551 123.071,159.884 125.5,159.5 Z"/></g>
<g><path style="opacity:0.549" fill="#974f2e" d="M 232.5,163.5 C 233.167,163.5 233.833,163.5 234.5,163.5C 233.234,169.36 230.9,174.693 227.5,179.5C 227.733,175.564 228.733,171.897 230.5,168.5C 230.796,166.597 231.463,164.93 232.5,163.5 Z"/></g>
<g><path style="opacity:1" fill="#e96918" d="M 138.5,166.5 C 150.235,166.68 161.568,168.847 172.5,173C 158.115,173.157 143.782,173.99 129.5,175.5C 132.167,172.167 135.167,169.167 138.5,166.5 Z"/></g>
<g><path style="opacity:1" fill="#e96a21" d="M 105.5,166.5 C 105.175,168.132 104.175,169.132 102.5,169.5C 96.4704,170.915 90.8037,173.082 85.5,176C 79.9116,177.289 74.2449,177.789 68.5,177.5C 71.5347,175.983 74.2013,173.817 76.5,171C 85.9532,168.153 95.6199,166.653 105.5,166.5 Z"/></g>
<g><path style="opacity:0.514" fill="#75311a" d="M 137.5,164.5 C 134.437,168.566 130.771,171.899 126.5,174.5C 129.563,170.434 133.229,167.101 137.5,164.5 Z"/></g>
<g><path style="opacity:1" fill="#f38a35" d="M 159.5,138.5 C 157.788,140.896 157.288,143.562 158,146.5C 159.152,149.44 160.152,152.44 161,155.5C 164.842,162.453 170.675,164.953 178.5,163C 187.282,157.435 196.615,156.268 206.5,159.5C 203.719,166.625 200.052,173.291 195.5,179.5C 189.953,184.892 184.62,190.559 179.5,196.5C 175.135,199.544 171.135,202.877 167.5,206.5C 165.883,207.038 164.216,207.371 162.5,207.5C 150.336,206.939 138.169,206.273 126,205.5C 114.419,205.326 102.919,206.159 91.5,208C 84.9875,210.503 78.3208,212.503 71.5,214C 70.4639,215.776 70.4639,217.609 71.5,219.5C 70.1667,219.5 68.8333,219.5 67.5,219.5C 65.7867,216.735 63.62,214.402 61,212.5C 60.5065,210.866 60.3398,209.199 60.5,207.5C 65.3768,208.188 69.7101,207.021 73.5,204C 79.8333,202.333 86.1667,200.667 92.5,199C 94.8082,197.133 97.4749,196.133 100.5,196C 103.347,191.761 107.347,189.261 112.5,188.5C 118.784,184.871 124.451,180.538 129.5,175.5C 143.782,173.99 158.115,173.157 172.5,173C 161.568,168.847 150.235,166.68 138.5,166.5C 145.147,161.016 150.98,154.682 156,147.5C 156.333,145.167 156.667,142.833 157,140.5C 157.708,139.619 158.542,138.953 159.5,138.5 Z"/></g>
<g><path style="opacity:0.212" fill="#612d1a" d="M 122.5,177.5 C 121.738,179.262 120.404,180.262 118.5,180.5C 119.262,178.738 120.596,177.738 122.5,177.5 Z"/></g>
<g><path style="opacity:0.282" fill="#6c2c17" d="M 118.5,180.5 C 118.167,181.167 117.833,181.833 117.5,182.5C 116.833,182.5 116.167,182.5 115.5,182.5C 115.973,181.094 116.973,180.427 118.5,180.5 Z"/></g>
<g><path style="opacity:0.42" fill="#a96138" d="M 227.5,179.5 C 225.529,184.105 223.029,188.438 220,192.5C 218.961,193.71 217.794,194.71 216.5,195.5C 216.5,194.167 216.5,192.833 216.5,191.5C 217.5,191.5 218.5,191.5 219.5,191.5C 220.316,187.853 221.816,184.52 224,181.5C 224.816,180.177 225.983,179.511 227.5,179.5 Z"/></g>
<g><path style="opacity:0.247" fill="#582910" d="M 115.5,182.5 C 115.027,183.906 114.027,184.573 112.5,184.5C 112.973,183.094 113.973,182.427 115.5,182.5 Z"/></g>
<g><path style="opacity:0.255" fill="#5e2b13" d="M 112.5,184.5 C 112.027,185.906 111.027,186.573 109.5,186.5C 109.973,185.094 110.973,184.427 112.5,184.5 Z"/></g>
<g><path style="opacity:1" fill="#cc824b" d="M 115.5,182.5 C 116.167,182.5 116.833,182.5 117.5,182.5C 115.833,184.5 114.167,186.5 112.5,188.5C 107.347,189.261 103.347,191.761 100.5,196C 97.4749,196.133 94.8082,197.133 92.5,199C 86.1667,200.667 79.8333,202.333 73.5,204C 69.7101,207.021 65.3768,208.188 60.5,207.5C 60.3398,209.199 60.5065,210.866 61,212.5C 63.62,214.402 65.7867,216.735 67.5,219.5C 62.77,217.272 58.77,214.105 55.5,210C 57.4865,207.283 60.1532,205.783 63.5,205.5C 68.7669,204.411 73.7669,202.744 78.5,200.5C 89.126,196.619 99.4593,191.952 109.5,186.5C 111.027,186.573 112.027,185.906 112.5,184.5C 114.027,184.573 115.027,183.906 115.5,182.5 Z"/></g>
<g><path style="opacity:0.318" fill="#985c38" d="M 78.5,200.5 C 73.7669,202.744 68.7669,204.411 63.5,205.5C 68.085,202.86 73.085,201.194 78.5,200.5 Z"/></g>
<g><path style="opacity:1" fill="#f77325" d="M 162.5,207.5 C 158.557,210.478 154.223,212.978 149.5,215C 132.251,222.243 114.251,226.41 95.5,227.5C 90.9492,227.62 86.6159,226.953 82.5,225.5C 78.1494,224.523 74.4827,222.523 71.5,219.5C 70.4639,217.609 70.4639,215.776 71.5,214C 78.3208,212.503 84.9875,210.503 91.5,208C 102.919,206.159 114.419,205.326 126,205.5C 138.169,206.273 150.336,206.939 162.5,207.5 Z"/></g>
<g><path style="opacity:1" fill="#e16316" d="M 203.5,207.5 C 201.896,208.287 201.229,209.62 201.5,211.5C 198.387,211.948 195.72,213.282 193.5,215.5C 190.74,217.115 187.74,218.281 184.5,219C 182.963,220.11 182.297,221.61 182.5,223.5C 176.608,226.029 170.775,228.696 165,231.5C 161.286,232.869 157.453,233.536 153.5,233.5C 143.599,235.376 133.599,235.876 123.5,235C 119.136,234.606 115.136,233.272 111.5,231C 104.918,231.245 98.2514,230.745 91.5,229.5C 87.8355,229.498 84.8355,228.165 82.5,225.5C 86.6159,226.953 90.9492,227.62 95.5,227.5C 114.251,226.41 132.251,222.243 149.5,215C 154.223,212.978 158.557,210.478 162.5,207.5C 164.216,207.371 165.883,207.038 167.5,206.5C 176.546,205.755 185.546,204.589 194.5,203C 196.727,202.879 198.56,202.046 200,200.5C 200.308,201.308 200.808,201.975 201.5,202.5C 202.451,201.674 203.451,201.508 204.5,202C 203.594,203.699 203.261,205.533 203.5,207.5 Z"/></g>
<g><path style="opacity:0.675" fill="#9c4b29" d="M 213.5,199.5 C 207.79,207.544 200.79,214.21 192.5,219.5C 192.433,218.041 192.766,216.708 193.5,215.5C 195.72,213.282 198.387,211.948 201.5,211.5C 201.229,209.62 201.896,208.287 203.5,207.5C 204.479,206.235 205.479,204.901 206.5,203.5C 207.689,202.571 209.022,202.238 210.5,202.5C 210.5,201.5 210.5,200.5 210.5,199.5C 211.5,199.5 212.5,199.5 213.5,199.5 Z"/></g>
<g><path style="opacity:1" fill="#be5e28" d="M 193.5,215.5 C 192.766,216.708 192.433,218.041 192.5,219.5C 190.302,221.098 187.969,222.431 185.5,223.5C 184.5,223.5 183.5,223.5 182.5,223.5C 182.297,221.61 182.963,220.11 184.5,219C 187.74,218.281 190.74,217.115 193.5,215.5 Z"/></g>
<g><path style="opacity:0.471" fill="#9b4d29" d="M 182.5,223.5 C 183.5,223.5 184.5,223.5 185.5,223.5C 174.577,230.587 162.577,234.921 149.5,236.5C 150.833,235.5 152.167,234.5 153.5,233.5C 157.453,233.536 161.286,232.869 165,231.5C 170.775,228.696 176.608,226.029 182.5,223.5 Z"/></g>
<g><path style="opacity:0.643" fill="#aa5934" d="M 67.5,219.5 C 68.8333,219.5 70.1667,219.5 71.5,219.5C 74.4827,222.523 78.1494,224.523 82.5,225.5C 84.8355,228.165 87.8355,229.498 91.5,229.5C 91.6107,230.117 91.944,230.617 92.5,231C 95.961,231.994 99.461,232.827 103,233.5C 104.03,233.836 104.53,234.503 104.5,235.5C 90.7918,233.141 78.4584,227.808 67.5,219.5 Z"/></g>
<g><path style="opacity:1" fill="#d86523" d="M 91.5,229.5 C 98.2514,230.745 104.918,231.245 111.5,231C 115.136,233.272 119.136,234.606 123.5,235C 133.599,235.876 143.599,235.376 153.5,233.5C 152.167,234.5 150.833,235.5 149.5,236.5C 149.167,236.5 148.833,236.5 148.5,236.5C 134.151,236.656 119.817,236.323 105.5,235.5C 105.167,235.5 104.833,235.5 104.5,235.5C 104.53,234.503 104.03,233.836 103,233.5C 99.461,232.827 95.961,231.994 92.5,231C 91.944,230.617 91.6107,230.117 91.5,229.5 Z"/></g>
<g><path style="opacity:0.567" fill="#b15c32" d="M 105.5,235.5 C 119.817,236.323 134.151,236.656 148.5,236.5C 134.096,239.37 119.762,239.036 105.5,235.5 Z"/></g>
</svg>
